<svg xmlns="http://www.w3.org/2000/svg" width="512" height="512" viewBox="0 0 512 512" role="img" aria-labelledby="title desc">
  <title id="title">CodeDeployer mark</title>
  <desc id="desc">A compact app icon showing code flowing to a server through a deploy arrow.</desc>
  <defs>
    <linearGradient id="bg" x1="64" y1="56" x2="448" y2="456" gradientUnits="userSpaceOnUse">
      <stop offset="0" stop-color="#0f766e"/>
      <stop offset="0.58" stop-color="#0b4f54"/>
      <stop offset="1" stop-color="#17313a"/>
    </linearGradient>
    <linearGradient id="arrow" x1="132" y1="290" x2="326" y2="222" gradientUnits="userSpaceOnUse">
      <stop offset="0" stop-color="#facc15"/>
      <stop offset="1" stop-color="#fb923c"/>
    </linearGradient>
    <filter id="softShadow" x="-20%" y="-20%" width="140%" height="140%" color-interpolation-filters="sRGB">
      <feDropShadow dx="0" dy="14" stdDeviation="14" flood-color="#052e2b" flood-opacity="0.32"/>
    </filter>
  </defs>

  <rect x="24" y="24" width="464" height="464" rx="92" fill="url(#bg)"/>

  <g filter="url(#softShadow)">
    <path d="M163 161 95 256l68 95" fill="none" stroke="#f8fafc" stroke-width="34" stroke-linecap="round" stroke-linejoin="round"/>
    <path d="M211 173 177 339" fill="none" stroke="#a7f3d0" stroke-width="26" stroke-linecap="round"/>
    <path d="M132 286c42 18 83 16 122-6 29-17 52-42 78-68" fill="none" stroke="url(#arrow)" stroke-width="30" stroke-linecap="round"/>
    <path d="M330 211 323 271 378 248Z" fill="#fb923c"/>
    <rect x="308" y="142" width="104" height="56" rx="17" fill="#f8fafc"/>
    <rect x="308" y="224" width="104" height="56" rx="17" fill="#f8fafc"/>
    <rect x="308" y="306" width="104" height="56" rx="17" fill="#f8fafc"/>
    <circle cx="335" cy="170" r="8" fill="#14b8a6"/>
    <circle cx="335" cy="252" r="8" fill="#14b8a6"/>
    <circle cx="335" cy="334" r="8" fill="#14b8a6"/>
    <path d="M354 170h38M354 252h38M354 334h38" stroke="#17313a" stroke-width="10" stroke-linecap="round" opacity="0.64"/>
  </g>
</svg>
